<svg xmlns="http://www.w3.org/2000/svg" width="16" height="16"><path fill="#000" d="M10.927.586a2 2 0 0 1 2.829 0l1.659 1.659a2 2 0 0 1 0 2.829L4.487 16.001H0v-4.489L10.927.586Zm2.697 11.68a.4.4 0 0 1 .753 0l.29.823a.4.4 0 0 0 .244.243l.823.29a.4.4 0 0 1 0 .755l-.823.29a.4.4 0 0 0-.243.244l-.291.823a.4.4 0 0 1-.753 0l-.292-.823a.4.4 0 0 0-.243-.243l-.823-.291a.4.4 0 0 1 0-.754l.823-.291a.4.4 0 0 0 .243-.243l.292-.823ZM1 11.926v3.075h3.073l8.61-8.61-3.074-3.074L1 11.927ZM13.049 1.294a1 1 0 0 0-1.34-.069l-.075.069-1.318 1.317 3.073 3.073 1.319-1.316.068-.076a1 1 0 0 0 0-1.263l-.068-.076-1.66-1.66ZM2.029.333a.5.5 0 0 1 .941 0l.365 1.028a.5.5 0 0 0 .304.304l1.029.364a.5.5 0 0 1 0 .941l-1.029.365a.5.5 0 0 0-.304.303L2.97 4.667a.5.5 0 0 1-.941 0l-.364-1.029a.5.5 0 0 0-.304-.303L.333 2.97a.5.5 0 0 1 0-.94l1.028-.365a.5.5 0 0 0 .304-.304L2.029.333Z"/></svg>
